<svg width="949" height="49" viewBox="0 0 949 49" fill="none" xmlns="http://www.w3.org/2000/svg">
<path d="M22.5625 10.2812L10.1875 48H0.21875L17.125 2.5H23.4688L22.5625 10.2812ZM32.8438 48L20.4375 10.2812L19.4375 2.5H25.8438L42.8438 48H32.8438ZM32.2812 31.0625V38.4062H8.25V31.0625H32.2812ZM66.125 39.9062V14.1875H75.125V48H66.6562L66.125 39.9062ZM67.125 32.9688L69.7812 32.9062C69.7812 35.1562 69.5208 37.25 69 39.1875C68.4792 41.1042 67.6979 42.7708 66.6562 44.1875C65.6146 45.5833 64.3021 46.6771 62.7188 47.4688C61.1354 48.2396 59.2708 48.625 57.125 48.625C55.4792 48.625 53.9583 48.3958 52.5625 47.9375C51.1875 47.4583 50 46.7188 49 45.7188C48.0208 44.6979 47.25 43.3958 46.6875 41.8125C46.1458 40.2083 45.875 38.2812 45.875 36.0312V14.1875H54.875V36.0938C54.875 37.0938 54.9896 37.9375 55.2188 38.625C55.4688 39.3125 55.8125 39.875 56.25 40.3125C56.6875 40.75 57.1979 41.0625 57.7812 41.25C58.3854 41.4375 59.0521 41.5312 59.7812 41.5312C61.6354 41.5312 63.0938 41.1562 64.1562 40.4062C65.2396 39.6562 66 38.6354 66.4375 37.3438C66.8958 36.0312 67.125 34.5729 67.125 32.9688ZM98.5625 14.1875V20.5625H78.875V14.1875H98.5625ZM83.75 5.84375H92.75V37.8125C92.75 38.7917 92.875 39.5417 93.125 40.0625C93.3958 40.5833 93.7917 40.9479 94.3125 41.1562C94.8333 41.3438 95.4896 41.4375 96.2812 41.4375C96.8438 41.4375 97.3438 41.4167 97.7812 41.375C98.2396 41.3125 98.625 41.25 98.9375 41.1875L98.9688 47.8125C98.1979 48.0625 97.3646 48.2604 96.4688 48.4062C95.5729 48.5521 94.5833 48.625 93.5 48.625C91.5208 48.625 89.7917 48.3021 88.3125 47.6562C86.8542 46.9896 85.7292 45.9271 84.9375 44.4688C84.1458 43.0104 83.75 41.0938 83.75 38.7188V5.84375ZM112.469 0V48H103.469V0H112.469ZM111.188 29.9062H108.719C108.74 27.5521 109.052 25.3854 109.656 23.4062C110.26 21.4062 111.125 19.6771 112.25 18.2188C113.375 16.7396 114.719 15.5938 116.281 14.7812C117.865 13.9688 119.615 13.5625 121.531 13.5625C123.198 13.5625 124.708 13.8021 126.062 14.2812C127.438 14.7396 128.615 15.4896 129.594 16.5312C130.594 17.5521 131.365 18.8958 131.906 20.5625C132.448 22.2292 132.719 24.25 132.719 26.625V48H123.656V26.5625C123.656 25.0625 123.438 23.8854 123 23.0312C122.583 22.1562 121.969 21.5417 121.156 21.1875C120.365 20.8125 119.385 20.625 118.219 20.625C116.927 20.625 115.823 20.8646 114.906 21.3438C114.01 21.8229 113.292 22.4896 112.75 23.3438C112.208 24.1771 111.812 25.1562 111.562 26.2812C111.312 27.4062 111.188 28.6146 111.188 29.9062ZM155.125 48.625C152.5 48.625 150.146 48.2083 148.062 47.375C145.979 46.5208 144.208 45.3438 142.75 43.8438C141.312 42.3438 140.208 40.6042 139.438 38.625C138.667 36.625 138.281 34.5 138.281 32.25V31C138.281 28.4375 138.646 26.0938 139.375 23.9688C140.104 21.8438 141.146 20 142.5 18.4375C143.875 16.875 145.542 15.6771 147.5 14.8438C149.458 13.9896 151.667 13.5625 154.125 13.5625C156.521 13.5625 158.646 13.9583 160.5 14.75C162.354 15.5417 163.906 16.6667 165.156 18.125C166.427 19.5833 167.385 21.3333 168.031 23.375C168.677 25.3958 169 27.6458 169 30.125V33.875H142.125V27.875H160.156V27.1875C160.156 25.9375 159.927 24.8229 159.469 23.8438C159.031 22.8438 158.365 22.0521 157.469 21.4688C156.573 20.8854 155.427 20.5938 154.031 20.5938C152.844 20.5938 151.823 20.8542 150.969 21.375C150.115 21.8958 149.417 22.625 148.875 23.5625C148.354 24.5 147.958 25.6042 147.688 26.875C147.438 28.125 147.312 29.5 147.312 31V32.25C147.312 33.6042 147.5 34.8542 147.875 36C148.271 37.1458 148.823 38.1354 149.531 38.9688C150.26 39.8021 151.135 40.4479 152.156 40.9062C153.198 41.3646 154.375 41.5938 155.688 41.5938C157.312 41.5938 158.823 41.2812 160.219 40.6562C161.635 40.0104 162.854 39.0417 163.875 37.75L168.25 42.5C167.542 43.5208 166.573 44.5 165.344 45.4375C164.135 46.375 162.677 47.1458 160.969 47.75C159.26 48.3333 157.312 48.625 155.125 48.625ZM182.938 21.4062V48H173.938V14.1875H182.375L182.938 21.4062ZM181.625 29.9062H179.188C179.188 27.4062 179.51 25.1562 180.156 23.1562C180.802 21.1354 181.708 19.4167 182.875 18C184.042 16.5625 185.427 15.4688 187.031 14.7188C188.656 13.9479 190.469 13.5625 192.469 13.5625C194.052 13.5625 195.5 13.7917 196.812 14.25C198.125 14.7083 199.25 15.4375 200.188 16.4375C201.146 17.4375 201.875 18.7604 202.375 20.4062C202.896 22.0521 203.156 24.0625 203.156 26.4375V48H194.094V26.4062C194.094 24.9062 193.885 23.7396 193.469 22.9062C193.052 22.0729 192.438 21.4896 191.625 21.1562C190.833 20.8021 189.854 20.625 188.688 20.625C187.479 20.625 186.427 20.8646 185.531 21.3438C184.656 21.8229 183.927 22.4896 183.344 23.3438C182.781 24.1771 182.354 25.1562 182.062 26.2812C181.771 27.4062 181.625 28.6146 181.625 29.9062ZM226.562 14.1875V20.5625H206.875V14.1875H226.562ZM211.75 5.84375H220.75V37.8125C220.75 38.7917 220.875 39.5417 221.125 40.0625C221.396 40.5833 221.792 40.9479 222.312 41.1562C222.833 41.3438 223.49 41.4375 224.281 41.4375C224.844 41.4375 225.344 41.4167 225.781 41.375C226.24 41.3125 226.625 41.25 226.938 41.1875L226.969 47.8125C226.198 48.0625 225.365 48.2604 224.469 48.4062C223.573 48.5521 222.583 48.625 221.5 48.625C219.521 48.625 217.792 48.3021 216.312 47.6562C214.854 46.9896 213.729 45.9271 212.938 44.4688C212.146 43.0104 211.75 41.0938 211.75 38.7188V5.84375ZM241.188 14.1875V48H232.156V14.1875H241.188ZM231.594 5.375C231.594 4.0625 232.052 2.97917 232.969 2.125C233.885 1.27083 235.115 0.84375 236.656 0.84375C238.177 0.84375 239.396 1.27083 240.312 2.125C241.25 2.97917 241.719 4.0625 241.719 5.375C241.719 6.6875 241.25 7.77083 240.312 8.625C239.396 9.47917 238.177 9.90625 236.656 9.90625C235.115 9.90625 233.885 9.47917 232.969 8.625C232.052 7.77083 231.594 6.6875 231.594 5.375ZM262.594 41.5938C263.698 41.5938 264.677 41.3854 265.531 40.9688C266.385 40.5312 267.052 39.9271 267.531 39.1562C268.031 38.3646 268.292 37.4375 268.312 36.375H276.781C276.76 38.75 276.125 40.8646 274.875 42.7188C273.625 44.5521 271.948 46 269.844 47.0625C267.74 48.1042 265.385 48.625 262.781 48.625C260.156 48.625 257.865 48.1875 255.906 47.3125C253.969 46.4375 252.354 45.2292 251.062 43.6875C249.771 42.125 248.802 40.3125 248.156 38.25C247.51 36.1667 247.188 33.9375 247.188 31.5625V30.6562C247.188 28.2604 247.51 26.0312 248.156 23.9688C248.802 21.8854 249.771 20.0729 251.062 18.5312C252.354 16.9688 253.969 15.75 255.906 14.875C257.844 14 260.115 13.5625 262.719 13.5625C265.49 13.5625 267.917 14.0938 270 15.1562C272.104 16.2188 273.75 17.7396 274.938 19.7188C276.146 21.6771 276.76 24 276.781 26.6875H268.312C268.292 25.5625 268.052 24.5417 267.594 23.625C267.156 22.7083 266.51 21.9792 265.656 21.4375C264.823 20.875 263.792 20.5938 262.562 20.5938C261.25 20.5938 260.177 20.875 259.344 21.4375C258.51 21.9792 257.865 22.7292 257.406 23.6875C256.948 24.625 256.625 25.6979 256.438 26.9062C256.271 28.0938 256.188 29.3438 256.188 30.6562V31.5625C256.188 32.875 256.271 34.1354 256.438 35.3438C256.604 36.5521 256.917 37.625 257.375 38.5625C257.854 39.5 258.51 40.2396 259.344 40.7812C260.177 41.3229 261.26 41.5938 262.594 41.5938ZM300.25 40.375V25.3125C300.25 24.2292 300.073 23.3021 299.719 22.5312C299.365 21.7396 298.812 21.125 298.062 20.6875C297.333 20.25 296.385 20.0312 295.219 20.0312C294.219 20.0312 293.354 20.2083 292.625 20.5625C291.896 20.8958 291.333 21.3854 290.938 22.0312C290.542 22.6562 290.344 23.3958 290.344 24.25H281.344C281.344 22.8125 281.677 21.4479 282.344 20.1562C283.01 18.8646 283.979 17.7292 285.25 16.75C286.521 15.75 288.031 14.9688 289.781 14.4062C291.552 13.8438 293.531 13.5625 295.719 13.5625C298.344 13.5625 300.677 14 302.719 14.875C304.76 15.75 306.365 17.0625 307.531 18.8125C308.719 20.5625 309.312 22.75 309.312 25.375V39.8438C309.312 41.6979 309.427 43.2188 309.656 44.4062C309.885 45.5729 310.219 46.5938 310.656 47.4688V48H301.562C301.125 47.0833 300.792 45.9375 300.562 44.5625C300.354 43.1667 300.25 41.7708 300.25 40.375ZM301.438 27.4062L301.5 32.5H296.469C295.281 32.5 294.25 32.6354 293.375 32.9062C292.5 33.1771 291.781 33.5625 291.219 34.0625C290.656 34.5417 290.24 35.1042 289.969 35.75C289.719 36.3958 289.594 37.1042 289.594 37.875C289.594 38.6458 289.771 39.3438 290.125 39.9688C290.479 40.5729 290.99 41.0521 291.656 41.4062C292.323 41.7396 293.104 41.9062 294 41.9062C295.354 41.9062 296.531 41.6354 297.531 41.0938C298.531 40.5521 299.302 39.8854 299.844 39.0938C300.406 38.3021 300.698 37.5521 300.719 36.8438L303.094 40.6562C302.76 41.5104 302.302 42.3958 301.719 43.3125C301.156 44.2292 300.438 45.0938 299.562 45.9062C298.688 46.6979 297.635 47.3542 296.406 47.875C295.177 48.375 293.719 48.625 292.031 48.625C289.885 48.625 287.938 48.1979 286.188 47.3438C284.458 46.4688 283.083 45.2708 282.062 43.75C281.062 42.2083 280.562 40.4583 280.562 38.5C280.562 36.7292 280.896 35.1562 281.562 33.7812C282.229 32.4062 283.208 31.25 284.5 30.3125C285.812 29.3542 287.448 28.6354 289.406 28.1562C291.365 27.6562 293.635 27.4062 296.219 27.4062H301.438ZM332.812 14.1875V20.5625H313.125V14.1875H332.812ZM318 5.84375H327V37.8125C327 38.7917 327.125 39.5417 327.375 40.0625C327.646 40.5833 328.042 40.9479 328.562 41.1562C329.083 41.3438 329.74 41.4375 330.531 41.4375C331.094 41.4375 331.594 41.4167 332.031 41.375C332.49 41.3125 332.875 41.25 333.188 41.1875L333.219 47.8125C332.448 48.0625 331.615 48.2604 330.719 48.4062C329.823 48.5521 328.833 48.625 327.75 48.625C325.771 48.625 324.042 48.3021 322.562 47.6562C321.104 46.9896 319.979 45.9271 319.188 44.4688C318.396 43.0104 318 41.0938 318 38.7188V5.84375ZM347.438 14.1875V48H338.406V14.1875H347.438ZM337.844 5.375C337.844 4.0625 338.302 2.97917 339.219 2.125C340.135 1.27083 341.365 0.84375 342.906 0.84375C344.427 0.84375 345.646 1.27083 346.562 2.125C347.5 2.97917 347.969 4.0625 347.969 5.375C347.969 6.6875 347.5 7.77083 346.562 8.625C345.646 9.47917 344.427 9.90625 342.906 9.90625C341.365 9.90625 340.135 9.47917 339.219 8.625C338.302 7.77083 337.844 6.6875 337.844 5.375ZM353.438 31.4375V30.7812C353.438 28.3021 353.792 26.0208 354.5 23.9375C355.208 21.8333 356.24 20.0104 357.594 18.4688C358.948 16.9271 360.615 15.7292 362.594 14.875C364.573 14 366.844 13.5625 369.406 13.5625C371.969 13.5625 374.25 14 376.25 14.875C378.25 15.7292 379.927 16.9271 381.281 18.4688C382.656 20.0104 383.698 21.8333 384.406 23.9375C385.115 26.0208 385.469 28.3021 385.469 30.7812V31.4375C385.469 33.8958 385.115 36.1771 384.406 38.2812C383.698 40.3646 382.656 42.1875 381.281 43.75C379.927 45.2917 378.26 46.4896 376.281 47.3438C374.302 48.1979 372.031 48.625 369.469 48.625C366.906 48.625 364.625 48.1979 362.625 47.3438C360.646 46.4896 358.969 45.2917 357.594 43.75C356.24 42.1875 355.208 40.3646 354.5 38.2812C353.792 36.1771 353.438 33.8958 353.438 31.4375ZM362.438 30.7812V31.4375C362.438 32.8542 362.562 34.1771 362.812 35.4062C363.062 36.6354 363.458 37.7188 364 38.6562C364.562 39.5729 365.292 40.2917 366.188 40.8125C367.083 41.3333 368.177 41.5938 369.469 41.5938C370.719 41.5938 371.792 41.3333 372.688 40.8125C373.583 40.2917 374.302 39.5729 374.844 38.6562C375.385 37.7188 375.781 36.6354 376.031 35.4062C376.302 34.1771 376.438 32.8542 376.438 31.4375V30.7812C376.438 29.4062 376.302 28.1146 376.031 26.9062C375.781 25.6771 375.375 24.5938 374.812 23.6562C374.271 22.6979 373.552 21.9479 372.656 21.4062C371.76 20.8646 370.677 20.5938 369.406 20.5938C368.135 20.5938 367.052 20.8646 366.156 21.4062C365.281 21.9479 364.562 22.6979 364 23.6562C363.458 24.5938 363.062 25.6771 362.812 26.9062C362.562 28.1146 362.438 29.4062 362.438 30.7812ZM399.812 21.4062V48H390.812V14.1875H399.25L399.812 21.4062ZM398.5 29.9062H396.062C396.062 27.4062 396.385 25.1562 397.031 23.1562C397.677 21.1354 398.583 19.4167 399.75 18C400.917 16.5625 402.302 15.4688 403.906 14.7188C405.531 13.9479 407.344 13.5625 409.344 13.5625C410.927 13.5625 412.375 13.7917 413.688 14.25C415 14.7083 416.125 15.4375 417.062 16.4375C418.021 17.4375 418.75 18.7604 419.25 20.4062C419.771 22.0521 420.031 24.0625 420.031 26.4375V48H410.969V26.4062C410.969 24.9062 410.76 23.7396 410.344 22.9062C409.927 22.0729 409.312 21.4896 408.5 21.1562C407.708 20.8021 406.729 20.625 405.562 20.625C404.354 20.625 403.302 20.8646 402.406 21.3438C401.531 21.8229 400.802 22.4896 400.219 23.3438C399.656 24.1771 399.229 25.1562 398.938 26.2812C398.646 27.4062 398.5 28.6146 398.5 29.9062ZM461.062 40.375V25.3125C461.062 24.2292 460.885 23.3021 460.531 22.5312C460.177 21.7396 459.625 21.125 458.875 20.6875C458.146 20.25 457.198 20.0312 456.031 20.0312C455.031 20.0312 454.167 20.2083 453.438 20.5625C452.708 20.8958 452.146 21.3854 451.75 22.0312C451.354 22.6562 451.156 23.3958 451.156 24.25H442.156C442.156 22.8125 442.49 21.4479 443.156 20.1562C443.823 18.8646 444.792 17.7292 446.062 16.75C447.333 15.75 448.844 14.9688 450.594 14.4062C452.365 13.8438 454.344 13.5625 456.531 13.5625C459.156 13.5625 461.49 14 463.531 14.875C465.573 15.75 467.177 17.0625 468.344 18.8125C469.531 20.5625 470.125 22.75 470.125 25.375V39.8438C470.125 41.6979 470.24 43.2188 470.469 44.4062C470.698 45.5729 471.031 46.5938 471.469 47.4688V48H462.375C461.938 47.0833 461.604 45.9375 461.375 44.5625C461.167 43.1667 461.062 41.7708 461.062 40.375ZM462.25 27.4062L462.312 32.5H457.281C456.094 32.5 455.062 32.6354 454.188 32.9062C453.312 33.1771 452.594 33.5625 452.031 34.0625C451.469 34.5417 451.052 35.1042 450.781 35.75C450.531 36.3958 450.406 37.1042 450.406 37.875C450.406 38.6458 450.583 39.3438 450.938 39.9688C451.292 40.5729 451.802 41.0521 452.469 41.4062C453.135 41.7396 453.917 41.9062 454.812 41.9062C456.167 41.9062 457.344 41.6354 458.344 41.0938C459.344 40.5521 460.115 39.8854 460.656 39.0938C461.219 38.3021 461.51 37.5521 461.531 36.8438L463.906 40.6562C463.573 41.5104 463.115 42.3958 462.531 43.3125C461.969 44.2292 461.25 45.0938 460.375 45.9062C459.5 46.6979 458.448 47.3542 457.219 47.875C455.99 48.375 454.531 48.625 452.844 48.625C450.698 48.625 448.75 48.1979 447 47.3438C445.271 46.4688 443.896 45.2708 442.875 43.75C441.875 42.2083 441.375 40.4583 441.375 38.5C441.375 36.7292 441.708 35.1562 442.375 33.7812C443.042 32.4062 444.021 31.25 445.312 30.3125C446.625 29.3542 448.26 28.6354 450.219 28.1562C452.177 27.6562 454.448 27.4062 457.031 27.4062H462.25ZM485.875 21.4062V48H476.875V14.1875H485.312L485.875 21.4062ZM484.562 29.9062H482.125C482.125 27.4062 482.448 25.1562 483.094 23.1562C483.74 21.1354 484.646 19.4167 485.812 18C486.979 16.5625 488.365 15.4688 489.969 14.7188C491.594 13.9479 493.406 13.5625 495.406 13.5625C496.99 13.5625 498.438 13.7917 499.75 14.25C501.062 14.7083 502.188 15.4375 503.125 16.4375C504.083 17.4375 504.812 18.7604 505.312 20.4062C505.833 22.0521 506.094 24.0625 506.094 26.4375V48H497.031V26.4062C497.031 24.9062 496.823 23.7396 496.406 22.9062C495.99 22.0729 495.375 21.4896 494.562 21.1562C493.771 20.8021 492.792 20.625 491.625 20.625C490.417 20.625 489.365 20.8646 488.469 21.3438C487.594 21.8229 486.865 22.4896 486.281 23.3438C485.719 24.1771 485.292 25.1562 485 26.2812C484.708 27.4062 484.562 28.6146 484.562 29.9062ZM532.906 40.625V0H541.969V48H533.812L532.906 40.625ZM511.531 31.5V30.8438C511.531 28.2604 511.823 25.9167 512.406 23.8125C512.99 21.6875 513.844 19.8646 514.969 18.3438C516.094 16.8229 517.479 15.6458 519.125 14.8125C520.771 13.9792 522.646 13.5625 524.75 13.5625C526.729 13.5625 528.458 13.9792 529.938 14.8125C531.438 15.6458 532.708 16.8333 533.75 18.375C534.812 19.8958 535.667 21.6979 536.312 23.7812C536.958 25.8438 537.427 28.1042 537.719 30.5625V32C537.427 34.3542 536.958 36.5417 536.312 38.5625C535.667 40.5833 534.812 42.3542 533.75 43.875C532.708 45.375 531.438 46.5417 529.938 47.375C528.438 48.2083 526.688 48.625 524.688 48.625C522.583 48.625 520.708 48.1979 519.062 47.3438C517.438 46.4896 516.062 45.2917 514.938 43.75C513.833 42.2083 512.99 40.3958 512.406 38.3125C511.823 36.2292 511.531 33.9583 511.531 31.5ZM520.531 30.8438V31.5C520.531 32.8958 520.635 34.1979 520.844 35.4062C521.073 36.6146 521.438 37.6875 521.938 38.625C522.458 39.5417 523.125 40.2604 523.938 40.7812C524.771 41.2812 525.781 41.5312 526.969 41.5312C528.51 41.5312 529.781 41.1875 530.781 40.5C531.781 39.7917 532.542 38.8229 533.062 37.5938C533.604 36.3646 533.917 34.9479 534 33.3438V29.25C533.938 27.9375 533.75 26.7604 533.438 25.7188C533.146 24.6562 532.708 23.75 532.125 23C531.562 22.25 530.854 21.6667 530 21.25C529.167 20.8333 528.177 20.625 527.031 20.625C525.865 20.625 524.865 20.8958 524.031 21.4375C523.198 21.9583 522.521 22.6771 522 23.5938C521.5 24.5104 521.125 25.5938 520.875 26.8438C520.646 28.0729 520.531 29.4062 520.531 30.8438ZM584 10.2812L571.625 48H561.656L578.562 2.5H584.906L584 10.2812ZM594.281 48L581.875 10.2812L580.875 2.5H587.281L604.281 48H594.281ZM593.719 31.0625V38.4062H569.688V31.0625H593.719ZM627.562 39.9062V14.1875H636.562V48H628.094L627.562 39.9062ZM628.562 32.9688L631.219 32.9062C631.219 35.1562 630.958 37.25 630.438 39.1875C629.917 41.1042 629.135 42.7708 628.094 44.1875C627.052 45.5833 625.74 46.6771 624.156 47.4688C622.573 48.2396 620.708 48.625 618.562 48.625C616.917 48.625 615.396 48.3958 614 47.9375C612.625 47.4583 611.438 46.7188 610.438 45.7188C609.458 44.6979 608.688 43.3958 608.125 41.8125C607.583 40.2083 607.312 38.2812 607.312 36.0312V14.1875H616.312V36.0938C616.312 37.0938 616.427 37.9375 616.656 38.625C616.906 39.3125 617.25 39.875 617.688 40.3125C618.125 40.75 618.635 41.0625 619.219 41.25C619.823 41.4375 620.49 41.5312 621.219 41.5312C623.073 41.5312 624.531 41.1562 625.594 40.4062C626.677 39.6562 627.438 38.6354 627.875 37.3438C628.333 36.0312 628.562 34.5729 628.562 32.9688ZM660 14.1875V20.5625H640.312V14.1875H660ZM645.188 5.84375H654.188V37.8125C654.188 38.7917 654.312 39.5417 654.562 40.0625C654.833 40.5833 655.229 40.9479 655.75 41.1562C656.271 41.3438 656.927 41.4375 657.719 41.4375C658.281 41.4375 658.781 41.4167 659.219 41.375C659.677 41.3125 660.062 41.25 660.375 41.1875L660.406 47.8125C659.635 48.0625 658.802 48.2604 657.906 48.4062C657.01 48.5521 656.021 48.625 654.938 48.625C652.958 48.625 651.229 48.3021 649.75 47.6562C648.292 46.9896 647.167 45.9271 646.375 44.4688C645.583 43.0104 645.188 41.0938 645.188 38.7188V5.84375ZM673.906 0V48H664.906V0H673.906ZM672.625 29.9062H670.156C670.177 27.5521 670.49 25.3854 671.094 23.4062C671.698 21.4062 672.562 19.6771 673.688 18.2188C674.812 16.7396 676.156 15.5938 677.719 14.7812C679.302 13.9688 681.052 13.5625 682.969 13.5625C684.635 13.5625 686.146 13.8021 687.5 14.2812C688.875 14.7396 690.052 15.4896 691.031 16.5312C692.031 17.5521 692.802 18.8958 693.344 20.5625C693.885 22.2292 694.156 24.25 694.156 26.625V48H685.094V26.5625C685.094 25.0625 684.875 23.8854 684.438 23.0312C684.021 22.1562 683.406 21.5417 682.594 21.1875C681.802 20.8125 680.823 20.625 679.656 20.625C678.365 20.625 677.26 20.8646 676.344 21.3438C675.448 21.8229 674.729 22.4896 674.188 23.3438C673.646 24.1771 673.25 25.1562 673 26.2812C672.75 27.4062 672.625 28.6146 672.625 29.9062ZM699.562 31.4375V30.7812C699.562 28.3021 699.917 26.0208 700.625 23.9375C701.333 21.8333 702.365 20.0104 703.719 18.4688C705.073 16.9271 706.74 15.7292 708.719 14.875C710.698 14 712.969 13.5625 715.531 13.5625C718.094 13.5625 720.375 14 722.375 14.875C724.375 15.7292 726.052 16.9271 727.406 18.4688C728.781 20.0104 729.823 21.8333 730.531 23.9375C731.24 26.0208 731.594 28.3021 731.594 30.7812V31.4375C731.594 33.8958 731.24 36.1771 730.531 38.2812C729.823 40.3646 728.781 42.1875 727.406 43.75C726.052 45.2917 724.385 46.4896 722.406 47.3438C720.427 48.1979 718.156 48.625 715.594 48.625C713.031 48.625 710.75 48.1979 708.75 47.3438C706.771 46.4896 705.094 45.2917 703.719 43.75C702.365 42.1875 701.333 40.3646 700.625 38.2812C699.917 36.1771 699.562 33.8958 699.562 31.4375ZM708.562 30.7812V31.4375C708.562 32.8542 708.688 34.1771 708.938 35.4062C709.188 36.6354 709.583 37.7188 710.125 38.6562C710.688 39.5729 711.417 40.2917 712.312 40.8125C713.208 41.3333 714.302 41.5938 715.594 41.5938C716.844 41.5938 717.917 41.3333 718.812 40.8125C719.708 40.2917 720.427 39.5729 720.969 38.6562C721.51 37.7188 721.906 36.6354 722.156 35.4062C722.427 34.1771 722.562 32.8542 722.562 31.4375V30.7812C722.562 29.4062 722.427 28.1146 722.156 26.9062C721.906 25.6771 721.5 24.5938 720.938 23.6562C720.396 22.6979 719.677 21.9479 718.781 21.4062C717.885 20.8646 716.802 20.5938 715.531 20.5938C714.26 20.5938 713.177 20.8646 712.281 21.4062C711.406 21.9479 710.688 22.6979 710.125 23.6562C709.583 24.5938 709.188 25.6771 708.938 26.9062C708.688 28.1146 708.562 29.4062 708.562 30.7812ZM746.125 21.5625V48H737.125V14.1875H745.594L746.125 21.5625ZM756.312 13.9688L756.156 22.3125C755.719 22.25 755.188 22.1979 754.562 22.1562C753.958 22.0938 753.406 22.0625 752.906 22.0625C751.635 22.0625 750.531 22.2292 749.594 22.5625C748.677 22.875 747.906 23.3438 747.281 23.9688C746.677 24.5938 746.219 25.3542 745.906 26.25C745.615 27.1458 745.448 28.1667 745.406 29.3125L743.594 28.75C743.594 26.5625 743.812 24.5521 744.25 22.7188C744.688 20.8646 745.323 19.25 746.156 17.875C747.01 16.5 748.052 15.4375 749.281 14.6875C750.51 13.9375 751.917 13.5625 753.5 13.5625C754 13.5625 754.51 13.6042 755.031 13.6875C755.552 13.75 755.979 13.8438 756.312 13.9688ZM770.062 14.1875V48H761.031V14.1875H770.062ZM760.469 5.375C760.469 4.0625 760.927 2.97917 761.844 2.125C762.76 1.27083 763.99 0.84375 765.531 0.84375C767.052 0.84375 768.271 1.27083 769.188 2.125C770.125 2.97917 770.594 4.0625 770.594 5.375C770.594 6.6875 770.125 7.77083 769.188 8.625C768.271 9.47917 767.052 9.90625 765.531 9.90625C763.99 9.90625 762.76 9.47917 761.844 8.625C760.927 7.77083 760.469 6.6875 760.469 5.375ZM804.406 40.9688V48H778.719V40.9688H804.406ZM803.906 19.375L782.344 48H776.312V42.6562L797.781 14.1875H803.906V19.375ZM800.719 14.1875V21.25H776.812V14.1875H800.719ZM828.312 40.375V25.3125C828.312 24.2292 828.135 23.3021 827.781 22.5312C827.427 21.7396 826.875 21.125 826.125 20.6875C825.396 20.25 824.448 20.0312 823.281 20.0312C822.281 20.0312 821.417 20.2083 820.688 20.5625C819.958 20.8958 819.396 21.3854 819 22.0312C818.604 22.6562 818.406 23.3958 818.406 24.25H809.406C809.406 22.8125 809.74 21.4479 810.406 20.1562C811.073 18.8646 812.042 17.7292 813.312 16.75C814.583 15.75 816.094 14.9688 817.844 14.4062C819.615 13.8438 821.594 13.5625 823.781 13.5625C826.406 13.5625 828.74 14 830.781 14.875C832.823 15.75 834.427 17.0625 835.594 18.8125C836.781 20.5625 837.375 22.75 837.375 25.375V39.8438C837.375 41.6979 837.49 43.2188 837.719 44.4062C837.948 45.5729 838.281 46.5938 838.719 47.4688V48H829.625C829.188 47.0833 828.854 45.9375 828.625 44.5625C828.417 43.1667 828.312 41.7708 828.312 40.375ZM829.5 27.4062L829.562 32.5H824.531C823.344 32.5 822.312 32.6354 821.438 32.9062C820.562 33.1771 819.844 33.5625 819.281 34.0625C818.719 34.5417 818.302 35.1042 818.031 35.75C817.781 36.3958 817.656 37.1042 817.656 37.875C817.656 38.6458 817.833 39.3438 818.188 39.9688C818.542 40.5729 819.052 41.0521 819.719 41.4062C820.385 41.7396 821.167 41.9062 822.062 41.9062C823.417 41.9062 824.594 41.6354 825.594 41.0938C826.594 40.5521 827.365 39.8854 827.906 39.0938C828.469 38.3021 828.76 37.5521 828.781 36.8438L831.156 40.6562C830.823 41.5104 830.365 42.3958 829.781 43.3125C829.219 44.2292 828.5 45.0938 827.625 45.9062C826.75 46.6979 825.698 47.3542 824.469 47.875C823.24 48.375 821.781 48.625 820.094 48.625C817.948 48.625 816 48.1979 814.25 47.3438C812.521 46.4688 811.146 45.2708 810.125 43.75C809.125 42.2083 808.625 40.4583 808.625 38.5C808.625 36.7292 808.958 35.1562 809.625 33.7812C810.292 32.4062 811.271 31.25 812.562 30.3125C813.875 29.3542 815.51 28.6354 817.469 28.1562C819.427 27.6562 821.698 27.4062 824.281 27.4062H829.5ZM860.875 14.1875V20.5625H841.188V14.1875H860.875ZM846.062 5.84375H855.062V37.8125C855.062 38.7917 855.188 39.5417 855.438 40.0625C855.708 40.5833 856.104 40.9479 856.625 41.1562C857.146 41.3438 857.802 41.4375 858.594 41.4375C859.156 41.4375 859.656 41.4167 860.094 41.375C860.552 41.3125 860.938 41.25 861.25 41.1875L861.281 47.8125C860.51 48.0625 859.677 48.2604 858.781 48.4062C857.885 48.5521 856.896 48.625 855.812 48.625C853.833 48.625 852.104 48.3021 850.625 47.6562C849.167 46.9896 848.042 45.9271 847.25 44.4688C846.458 43.0104 846.062 41.0938 846.062 38.7188V5.84375ZM875.5 14.1875V48H866.469V14.1875H875.5ZM865.906 5.375C865.906 4.0625 866.365 2.97917 867.281 2.125C868.198 1.27083 869.427 0.84375 870.969 0.84375C872.49 0.84375 873.708 1.27083 874.625 2.125C875.562 2.97917 876.031 4.0625 876.031 5.375C876.031 6.6875 875.562 7.77083 874.625 8.625C873.708 9.47917 872.49 9.90625 870.969 9.90625C869.427 9.90625 868.198 9.47917 867.281 8.625C866.365 7.77083 865.906 6.6875 865.906 5.375ZM881.5 31.4375V30.7812C881.5 28.3021 881.854 26.0208 882.562 23.9375C883.271 21.8333 884.302 20.0104 885.656 18.4688C887.01 16.9271 888.677 15.7292 890.656 14.875C892.635 14 894.906 13.5625 897.469 13.5625C900.031 13.5625 902.312 14 904.312 14.875C906.312 15.7292 907.99 16.9271 909.344 18.4688C910.719 20.0104 911.76 21.8333 912.469 23.9375C913.177 26.0208 913.531 28.3021 913.531 30.7812V31.4375C913.531 33.8958 913.177 36.1771 912.469 38.2812C911.76 40.3646 910.719 42.1875 909.344 43.75C907.99 45.2917 906.323 46.4896 904.344 47.3438C902.365 48.1979 900.094 48.625 897.531 48.625C894.969 48.625 892.688 48.1979 890.688 47.3438C888.708 46.4896 887.031 45.2917 885.656 43.75C884.302 42.1875 883.271 40.3646 882.562 38.2812C881.854 36.1771 881.5 33.8958 881.5 31.4375ZM890.5 30.7812V31.4375C890.5 32.8542 890.625 34.1771 890.875 35.4062C891.125 36.6354 891.521 37.7188 892.062 38.6562C892.625 39.5729 893.354 40.2917 894.25 40.8125C895.146 41.3333 896.24 41.5938 897.531 41.5938C898.781 41.5938 899.854 41.3333 900.75 40.8125C901.646 40.2917 902.365 39.5729 902.906 38.6562C903.448 37.7188 903.844 36.6354 904.094 35.4062C904.365 34.1771 904.5 32.8542 904.5 31.4375V30.7812C904.5 29.4062 904.365 28.1146 904.094 26.9062C903.844 25.6771 903.438 24.5938 902.875 23.6562C902.333 22.6979 901.615 21.9479 900.719 21.4062C899.823 20.8646 898.74 20.5938 897.469 20.5938C896.198 20.5938 895.115 20.8646 894.219 21.4062C893.344 21.9479 892.625 22.6979 892.062 23.6562C891.521 24.5938 891.125 25.6771 890.875 26.9062C890.625 28.1146 890.5 29.4062 890.5 30.7812ZM927.875 21.4062V48H918.875V14.1875H927.312L927.875 21.4062ZM926.562 29.9062H924.125C924.125 27.4062 924.448 25.1562 925.094 23.1562C925.74 21.1354 926.646 19.4167 927.812 18C928.979 16.5625 930.365 15.4688 931.969 14.7188C933.594 13.9479 935.406 13.5625 937.406 13.5625C938.99 13.5625 940.438 13.7917 941.75 14.25C943.062 14.7083 944.188 15.4375 945.125 16.4375C946.083 17.4375 946.812 18.7604 947.312 20.4062C947.833 22.0521 948.094 24.0625 948.094 26.4375V48H939.031V26.4062C939.031 24.9062 938.823 23.7396 938.406 22.9062C937.99 22.0729 937.375 21.4896 936.562 21.1562C935.771 20.8021 934.792 20.625 933.625 20.625C932.417 20.625 931.365 20.8646 930.469 21.3438C929.594 21.8229 928.865 22.4896 928.281 23.3438C927.719 24.1771 927.292 25.1562 927 26.2812C926.708 27.4062 926.562 28.6146 926.562 29.9062Z" fill="#A8A8B3"/>
</svg>
