<svg width="204" height="39" viewBox="0 0 204 39" fill="none" xmlns="http://www.w3.org/2000/svg">
<path d="M25.7699 10.7244H20.4574C20.3059 9.85322 20.0265 9.08144 19.6193 8.40909C19.2121 7.72727 18.7055 7.14962 18.0994 6.67614C17.4934 6.20265 16.8021 5.84754 16.0256 5.6108C15.2585 5.36458 14.4299 5.24148 13.5398 5.24148C11.9583 5.24148 10.5568 5.6392 9.33523 6.43466C8.11364 7.22064 7.1572 8.37595 6.46591 9.90057C5.77462 11.4157 5.42898 13.267 5.42898 15.4545C5.42898 17.6799 5.77462 19.5549 6.46591 21.0795C7.16667 22.5947 8.12311 23.7405 9.33523 24.517C10.5568 25.2841 11.9536 25.6676 13.5256 25.6676C14.3968 25.6676 15.2112 25.554 15.9688 25.3267C16.7358 25.09 17.4223 24.7443 18.0284 24.2898C18.6439 23.8352 19.16 23.2765 19.5767 22.6136C20.0028 21.9508 20.2964 21.1932 20.4574 20.3409L25.7699 20.3693C25.571 21.7519 25.1402 23.0492 24.4773 24.2614C23.8239 25.4735 22.9669 26.5436 21.9062 27.4716C20.8456 28.3902 19.6051 29.1098 18.1847 29.6307C16.7642 30.142 15.1875 30.3977 13.4545 30.3977C10.8977 30.3977 8.61553 29.8059 6.60795 28.6222C4.60038 27.4384 3.01894 25.7292 1.86364 23.4943C0.708333 21.2595 0.130682 18.5795 0.130682 15.4545C0.130682 12.3201 0.713068 9.64015 1.87784 7.41477C3.04261 5.17992 4.62879 3.47064 6.63636 2.28693C8.64394 1.10322 10.9167 0.511363 13.4545 0.511363C15.0739 0.511363 16.5795 0.738635 17.9716 1.19318C19.3636 1.64773 20.6042 2.31534 21.6932 3.19602C22.7822 4.06723 23.6771 5.13731 24.3778 6.40625C25.0881 7.66572 25.5521 9.10511 25.7699 10.7244ZM35.5107 17.2159V30H30.3686V0.90909H35.397V11.8892H35.6527C36.1641 10.6581 36.9548 9.6875 38.0249 8.97727C39.1044 8.25758 40.4775 7.89773 42.1442 7.89773C43.6593 7.89773 44.9804 8.21496 46.1072 8.84943C47.2341 9.4839 48.1054 10.4119 48.7209 11.6335C49.3459 12.8551 49.6584 14.3466 49.6584 16.108V30H44.5163V16.9034C44.5163 15.4356 44.1375 14.2945 43.38 13.4801C42.6319 12.6562 41.5807 12.2443 40.2266 12.2443C39.3175 12.2443 38.5031 12.4432 37.7834 12.8409C37.0732 13.2292 36.5144 13.7926 36.1072 14.5312C35.7095 15.2699 35.5107 16.1648 35.5107 17.2159ZM61.1783 30.4403C59.7957 30.4403 58.5504 30.1941 57.4425 29.7017C56.344 29.1998 55.4728 28.4612 54.8288 27.4858C54.1944 26.5104 53.8771 25.3078 53.8771 23.8778C53.8771 22.6468 54.1044 21.6288 54.5589 20.8239C55.0135 20.0189 55.6338 19.375 56.4197 18.892C57.2057 18.4091 58.0911 18.0445 59.076 17.7983C60.0703 17.5426 61.0978 17.358 62.1584 17.2443C63.4368 17.1117 64.4737 16.9934 65.2692 16.8892C66.0646 16.7756 66.6423 16.6051 67.0021 16.3778C67.3714 16.1411 67.5561 15.7765 67.5561 15.2841V15.1989C67.5561 14.1288 67.2389 13.3002 66.6044 12.7131C65.9699 12.1259 65.0561 11.8324 63.8629 11.8324C62.6035 11.8324 61.6044 12.107 60.8658 12.6562C60.1366 13.2055 59.6442 13.8542 59.3885 14.6023L54.5874 13.9205C54.9661 12.5947 55.5911 11.4867 56.4624 10.5966C57.3336 9.69697 58.3989 9.02462 59.6584 8.57955C60.9179 8.125 62.3099 7.89773 63.8345 7.89773C64.8857 7.89773 65.9321 8.02083 66.9737 8.26705C68.0154 8.51326 68.9671 8.92045 69.8288 9.48864C70.6906 10.0473 71.3819 10.8097 71.9027 11.7756C72.433 12.7415 72.6982 13.9489 72.6982 15.3977V30H67.755V27.0028H67.5845C67.272 27.6089 66.8317 28.1771 66.2635 28.7074C65.7048 29.2282 64.9993 29.6496 64.147 29.9716C63.3042 30.2841 62.3146 30.4403 61.1783 30.4403ZM62.5135 26.6619C63.5457 26.6619 64.4406 26.4583 65.1982 26.0511C65.9557 25.6345 66.5381 25.0852 66.9453 24.4034C67.362 23.7216 67.5703 22.9782 67.5703 22.1733V19.6023C67.4093 19.7348 67.1347 19.858 66.7464 19.9716C66.3677 20.0852 65.9415 20.1847 65.468 20.2699C64.9946 20.3551 64.5258 20.4309 64.0618 20.4972C63.5978 20.5634 63.1953 20.6203 62.8544 20.6676C62.0874 20.7718 61.4008 20.9422 60.7947 21.179C60.1887 21.4157 59.7105 21.7472 59.3601 22.1733C59.0097 22.59 58.8345 23.1297 58.8345 23.7926C58.8345 24.7396 59.1802 25.4545 59.8714 25.9375C60.5627 26.4205 61.4434 26.6619 62.5135 26.6619ZM77.8686 38.1818V8.18182H82.9254V11.7898H83.2237C83.4889 11.2595 83.8629 10.696 84.3459 10.0994C84.8288 9.49337 85.4822 8.97727 86.3061 8.55114C87.13 8.11553 88.1811 7.89773 89.4595 7.89773C91.1451 7.89773 92.665 8.3286 94.0192 9.19034C95.3828 10.0426 96.4624 11.3068 97.2578 12.983C98.0627 14.6496 98.4652 16.6951 98.4652 19.1193C98.4652 21.5152 98.0722 23.5511 97.2862 25.2273C96.5002 26.9034 95.4302 28.1818 94.076 29.0625C92.7218 29.9432 91.1877 30.3835 89.4737 30.3835C88.2237 30.3835 87.1868 30.1752 86.3629 29.7585C85.5391 29.3419 84.8762 28.84 84.3743 28.2528C83.8819 27.6562 83.4983 27.0928 83.2237 26.5625H83.0107V38.1818H77.8686ZM82.9112 19.0909C82.9112 20.5019 83.1101 21.7377 83.5078 22.7983C83.915 23.8589 84.4974 24.6875 85.255 25.2841C86.022 25.8712 86.95 26.1648 88.0391 26.1648C89.1754 26.1648 90.1271 25.8617 90.8942 25.2557C91.6612 24.6402 92.2389 23.8021 92.6271 22.7415C93.0249 21.6714 93.2237 20.4545 93.2237 19.0909C93.2237 17.7367 93.0296 16.5341 92.6413 15.483C92.2531 14.4318 91.6754 13.608 90.9084 13.0114C90.1413 12.4148 89.1849 12.1165 88.0391 12.1165C86.9406 12.1165 86.0078 12.4053 85.2408 12.983C84.4737 13.5606 83.8913 14.3703 83.4936 15.4119C83.1054 16.4536 82.9112 17.6799 82.9112 19.0909ZM113.763 8.18182V12.1591H101.221V8.18182H113.763ZM104.317 2.95455H109.46V23.4375C109.46 24.1288 109.564 24.6591 109.772 25.0284C109.99 25.3883 110.274 25.6345 110.624 25.767C110.975 25.8996 111.363 25.9659 111.789 25.9659C112.111 25.9659 112.405 25.9422 112.67 25.8949C112.944 25.8475 113.153 25.8049 113.295 25.767L114.161 29.7869C113.887 29.8816 113.494 29.9858 112.982 30.0994C112.48 30.2131 111.865 30.2794 111.136 30.2983C109.848 30.3362 108.688 30.142 107.656 29.7159C106.623 29.2803 105.804 28.608 105.198 27.6989C104.602 26.7898 104.308 25.6534 104.317 24.2898V2.95455ZM127.489 30.4261C125.301 30.4261 123.412 29.9716 121.821 29.0625C120.24 28.1439 119.023 26.8466 118.17 25.1705C117.318 23.4848 116.892 21.5009 116.892 19.2188C116.892 16.9744 117.318 15.0047 118.17 13.3097C119.032 11.6051 120.235 10.2794 121.778 9.33239C123.322 8.37595 125.135 7.89773 127.219 7.89773C128.563 7.89773 129.832 8.11553 131.026 8.55114C132.228 8.97727 133.289 9.64015 134.207 10.5398C135.135 11.4394 135.865 12.5852 136.395 13.9773C136.925 15.3598 137.19 17.0076 137.19 18.9205V20.4972H119.307V17.0312H132.261C132.252 16.0464 132.039 15.1705 131.622 14.4034C131.205 13.6269 130.623 13.0161 129.875 12.571C129.136 12.1259 128.275 11.9034 127.29 11.9034C126.239 11.9034 125.315 12.1591 124.52 12.6705C123.724 13.1723 123.104 13.8352 122.659 14.6591C122.223 15.4735 122.001 16.3684 121.991 17.3438V20.3693C121.991 21.6383 122.223 22.7273 122.688 23.6364C123.152 24.536 123.8 25.2273 124.634 25.7102C125.467 26.1837 126.442 26.4205 127.56 26.4205C128.308 26.4205 128.985 26.3163 129.591 26.108C130.197 25.8902 130.723 25.5729 131.168 25.1562C131.613 24.7396 131.949 24.2235 132.176 23.608L136.977 24.1477C136.674 25.4167 136.097 26.5246 135.244 27.4716C134.402 28.4091 133.322 29.1383 132.006 29.6591C130.689 30.1705 129.184 30.4261 127.489 30.4261ZM141.54 30V8.18182H146.526V11.8182H146.754C147.151 10.5587 147.833 9.58807 148.799 8.90625C149.774 8.21496 150.887 7.86932 152.137 7.86932C152.421 7.86932 152.738 7.88352 153.089 7.91193C153.449 7.93087 153.747 7.96401 153.984 8.01136V12.7415C153.766 12.6657 153.42 12.5994 152.947 12.5426C152.483 12.4763 152.033 12.4432 151.597 12.4432C150.66 12.4432 149.817 12.6468 149.069 13.054C148.33 13.4517 147.748 14.0057 147.322 14.7159C146.896 15.4261 146.683 16.2453 146.683 17.1733V30H141.54ZM172.819 0.90909V30H167.549V0.90909H172.819ZM182.418 0.90909L189.989 23.8068H190.287L197.844 0.90909H203.639L193.384 30H186.878L176.636 0.90909H182.418Z" fill="#A8A8B3"/>
</svg>
