<svg width="574" height="111" viewBox="0 0 666 124" fill="none" xmlns="http://www.w3.org/2000/svg">
<g filter="url(#filter0_ddddd_11_8)">
<rect x="23" y="4" width="587" height="110" rx="55" fill="#202024"/>
<path fill-rule="evenodd" clip-rule="evenodd" d="M196.05 41.5397C195.356 42.2139 195.019 43.0666 195.019 44.0977C195.019 45.1486 195.376 46.0211 196.05 46.6754C196.764 47.3496 197.696 47.6867 198.865 47.6867C200.035 47.6867 200.967 47.3496 201.681 46.6754C202.395 46.0012 202.752 45.1486 202.752 44.0977C202.752 43.0666 202.395 42.2139 201.701 41.5397C201.007 40.8655 200.055 40.5284 198.885 40.5284C197.696 40.5284 196.744 40.8655 196.05 41.5397ZM195.435 76.637H202.355V50.78H195.435V76.637ZM209.136 53.9526C207.252 56.3717 206.3 59.5642 206.3 63.53H206.32V63.8274C206.32 67.8329 207.272 71.065 209.195 73.4841C211.119 75.9231 213.617 77.1327 216.73 77.1327C219.328 77.1327 221.43 76.2404 223.016 74.4359V75.8239C223.016 77.6284 222.501 79.0164 221.489 79.988C220.458 80.9597 219.031 81.4554 217.206 81.4554C214.747 81.4554 212.665 80.4837 210.94 78.5603L207.887 82.7641C208.819 83.9737 210.167 84.9453 211.971 85.6988C213.756 86.4523 215.6 86.829 217.504 86.829C220.002 86.829 222.183 86.3928 224.047 85.5203C225.911 84.6479 227.359 83.359 228.39 81.6933C229.421 80.0079 229.936 78.0448 229.936 75.7843V50.7998H223.671L223.393 53.2387C221.807 51.2955 219.606 50.3239 216.77 50.3239C213.558 50.3239 211.02 51.5334 209.136 53.9526ZM214.609 69.5381C213.677 68.2096 213.201 66.3655 213.201 64.0257C213.201 61.3488 213.677 59.3064 214.628 57.9778C215.58 56.6096 216.869 55.9355 218.535 55.9355C220.577 55.9355 222.064 56.7088 222.996 58.2951V69.1812C222.084 70.7477 220.577 71.5409 218.475 71.5409C216.829 71.5409 215.541 70.8667 214.609 69.5381ZM240.844 50.7803L241.062 53.7745C242.906 51.4744 245.385 50.3044 248.498 50.3044C251.235 50.3044 253.277 51.1174 254.606 52.7236C255.934 54.3297 256.628 56.729 256.668 59.9413V76.6374H249.767V60.1C249.767 58.6326 249.45 57.5817 248.816 56.9075C248.181 56.2531 247.11 55.916 245.643 55.916C243.7 55.916 242.252 56.7489 241.281 58.3947V76.6175H234.38V50.7803H240.844ZM262.139 41.5397C261.445 42.2139 261.108 43.0666 261.108 44.0977C261.108 45.1486 261.465 46.0211 262.139 46.6754C262.853 47.3496 263.785 47.6867 264.954 47.6867C266.124 47.6867 267.056 47.3496 267.77 46.6754C268.484 46.0012 268.841 45.1486 268.841 44.0977C268.841 43.0666 268.484 42.2139 267.79 41.5397C267.096 40.8655 266.144 40.5284 264.974 40.5284C263.785 40.5284 262.833 40.8655 262.139 41.5397ZM261.524 76.637H268.444V50.78H261.524V76.637ZM281.671 44.4547V50.7801H286.093V55.8365H281.671V68.7452C281.671 69.697 281.85 70.391 282.226 70.8074C282.583 71.2238 283.297 71.4221 284.328 71.4221C285.102 71.4221 285.776 71.3626 286.351 71.2635V76.4983C285.003 76.9147 283.595 77.113 282.167 77.113C277.329 77.113 274.85 74.6741 274.771 69.7763V55.8563H271.003V50.7999H274.771V44.4547H281.671ZM291.824 73.6234C294.203 75.9434 297.297 77.1133 301.084 77.1133C303.245 77.1133 305.208 76.6969 306.953 75.8641C308.718 75.0511 310.126 73.901 311.157 72.4337L307.766 68.6265C306.279 70.5499 304.197 71.5215 301.54 71.5215C299.815 71.5215 298.407 71.006 297.277 69.9947C296.147 68.9636 295.472 67.6152 295.254 65.9298H311.712V63.114C311.712 59.0293 310.681 55.8566 308.659 53.6358C306.636 51.3951 303.84 50.2847 300.311 50.2847C297.971 50.2847 295.869 50.8399 294.025 51.9503C292.181 53.0607 290.773 54.6471 289.762 56.6894C288.75 58.7318 288.255 61.0518 288.255 63.6494V64.3236C288.255 68.2101 289.444 71.3034 291.824 73.6234ZM296.979 57.2645C297.832 56.3325 298.942 55.8764 300.311 55.8764C301.758 55.8764 302.888 56.2929 303.682 57.1257C304.495 57.9783 304.891 59.1681 304.931 60.6949V61.2501H295.334C295.591 59.525 296.127 58.1964 296.979 57.2645Z" fill="white"/>
<path opacity="0.5" d="M159.309 28.4864L141.683 94.2992C141.593 94.5979 141.235 94.6876 141.026 94.4784L129.225 82.6781L138.068 49.6971C138.158 49.3983 137.889 49.1294 137.59 49.2191L104.609 58.0618L92.8685 46.3213C92.6594 46.1122 92.749 45.7537 93.0478 45.664L158.831 28.0084C159.129 27.9487 159.398 28.2175 159.309 28.4864Z" fill="#219653"/>
<path opacity="0.5" d="M129.225 82.6786L124.685 99.7068C124.595 100.006 124.236 100.095 124.027 99.8861L87.4016 63.2902C87.1924 63.0811 87.2821 62.7226 87.5808 62.633L104.609 58.0623L129.225 82.6786Z" fill="#219653"/>
<path d="M138.068 49.6969L129.226 82.678L104.609 58.0617L137.59 49.2189C137.889 49.1293 138.158 49.3982 138.068 49.6969Z" fill="#219653"/>
<path d="M350.433 64.8583H344.033V80.8711H336V37.129H350.487C355.093 37.129 358.646 38.2807 361.145 40.5839C363.644 42.8872 364.894 46.1418 364.894 50.3478C364.894 53.332 364.314 55.8255 363.154 57.8284C362.011 59.8112 360.27 61.3935 357.932 62.5751L366.367 80.4506V80.8711H357.744L350.433 64.8583ZM344.033 57.558H350.514C352.531 57.558 354.093 56.9872 355.2 55.8456C356.307 54.6839 356.86 53.0917 356.86 51.0688C356.86 49.0059 356.334 47.3836 355.281 46.2019C354.245 45.0202 352.647 44.4294 350.487 44.4294H344.033V57.558ZM383.853 81.4718C379.604 81.4718 376.141 80.0097 373.463 77.0857C370.803 74.1616 369.473 70.266 369.473 65.3991V64.5579C369.473 61.2933 370.036 58.3792 371.16 55.8155C372.285 53.2319 373.874 51.2491 375.927 49.8671C377.998 48.4651 380.354 47.7641 382.996 47.7641C386.959 47.7641 390.075 49.1661 392.342 51.9701C394.627 54.7741 395.77 58.7497 395.77 63.897V67.442H377.319C377.569 69.5651 378.319 71.2674 379.569 72.5493C380.836 73.8311 382.434 74.472 384.362 74.472C387.343 74.472 389.673 73.2603 391.351 70.8368L395.154 75.6136C393.993 77.4563 392.422 78.8984 390.441 79.9396C388.459 80.9612 386.263 81.4718 383.853 81.4718ZM382.97 54.7941C381.434 54.7941 380.184 55.3749 379.221 56.5366C378.274 57.6982 377.667 59.3605 377.4 61.5237H388.164V60.8327C388.129 58.9099 387.665 57.4278 386.772 56.3863C385.879 55.3248 384.612 54.7941 382.97 54.7941ZM416.978 80.8711C416.621 80.09 416.362 79.1184 416.202 77.9571C414.327 80.3002 411.89 81.4718 408.891 81.4718C406.053 81.4718 403.696 80.5506 401.822 78.7082C399.965 76.8654 399.037 74.5421 399.037 71.7381C399.037 68.2932 400.17 65.6495 402.438 63.8069C404.723 61.9643 408.016 61.0329 412.319 61.0129H415.88V59.1503C415.88 57.6481 415.532 56.4464 414.836 55.5452C414.157 54.6439 413.077 54.1932 411.596 54.1932C410.293 54.1932 409.266 54.5437 408.516 55.2447C407.784 55.9457 407.418 56.9071 407.418 58.1288H399.679C399.679 56.2462 400.197 54.5037 401.233 52.9014C402.268 51.2991 403.732 50.0474 405.624 49.1461C407.517 48.2247 409.641 47.7641 411.998 47.7641C415.568 47.7641 418.398 48.7755 420.486 50.7984C422.593 52.8013 423.646 55.6253 423.646 59.2704V73.3604C423.664 76.4448 424.048 78.7783 424.798 80.3605V80.8711H416.978ZM410.578 74.8325C411.721 74.8325 412.774 74.5521 413.738 73.9913C414.702 73.4105 415.416 72.6394 415.88 71.678V66.0901H412.988C409.114 66.0901 407.052 67.5923 406.802 70.5965L406.776 71.1072C406.776 72.1888 407.115 73.08 407.793 73.781C408.472 74.482 409.4 74.8325 410.578 74.8325ZM441.641 74.472C443.069 74.472 444.23 74.0314 445.123 73.1501C446.015 72.2689 446.48 71.0972 446.515 69.6351H453.772C453.754 71.8383 453.219 73.8612 452.165 75.7037C451.112 77.5264 449.666 78.9483 447.827 79.97C446.006 80.9711 443.989 81.4718 441.775 81.4718C437.634 81.4718 434.367 79.9999 431.974 77.0557C429.582 74.0915 428.386 70.0057 428.386 64.7983V64.2275C428.386 59.2204 429.573 55.2247 431.947 52.2405C434.322 49.2562 437.58 47.7641 441.722 47.7641C445.346 47.7641 448.247 48.9258 450.425 51.2491C452.621 53.5523 453.736 56.6267 453.772 60.4721H446.515C446.48 58.7897 446.015 57.4278 445.123 56.3863C444.23 55.3248 443.052 54.7941 441.588 54.7941C439.785 54.7941 438.419 55.5351 437.491 57.0173C436.58 58.4793 436.125 60.8627 436.125 64.1674V65.0687C436.125 68.4134 436.58 70.8168 437.491 72.2789C438.401 73.741 439.785 74.472 441.641 74.472ZM467.456 40.3737V48.365H472.41V54.734H467.456V70.957C467.456 72.1587 467.661 73.0199 468.072 73.5407C468.482 74.0614 469.268 74.3218 470.428 74.3218C471.285 74.3218 472.044 74.2517 472.705 74.1115V80.6908C471.187 81.2116 469.625 81.4718 468.018 81.4718C462.591 81.4718 459.824 78.3976 459.717 72.2488V54.734H455.486V48.365H459.717V40.3737H467.456ZM492.949 37.129H500.983V67.412C500.983 70.1959 500.429 72.6594 499.323 74.8025C498.233 76.9255 496.689 78.5676 494.69 79.7294C492.69 80.8912 490.432 81.4718 487.915 81.4718C483.791 81.4718 480.578 80.3002 478.275 77.9571C475.972 75.5936 474.82 72.2589 474.82 67.9527H482.907C482.907 70.0958 483.309 71.678 484.112 72.6995C484.915 73.7209 486.183 74.2316 487.915 74.2316C489.45 74.2316 490.673 73.6408 491.583 72.4591C492.494 71.2775 492.949 69.5951 492.949 67.412V37.129ZM528.083 69.3948C528.083 67.6924 527.547 66.3905 526.476 65.4893C525.405 64.568 523.477 63.6066 520.692 62.6052C517.907 61.5837 515.702 60.5823 514.078 59.6009C509.65 56.9171 507.436 53.302 507.436 48.7555C507.436 46.3922 508.025 44.2892 509.204 42.4466C510.4 40.5839 512.105 39.1319 514.319 38.0904C516.55 37.0489 519.049 36.5282 521.816 36.5282C524.602 36.5282 527.083 37.099 529.261 38.2406C531.439 39.3622 533.126 40.9544 534.322 43.0174C535.536 45.0803 536.143 47.4237 536.143 50.0474H528.109C528.109 48.0445 527.547 46.4923 526.422 45.3907C525.298 44.2691 523.718 43.7083 521.683 43.7083C519.719 43.7083 518.192 44.179 517.103 45.1204C516.015 46.0417 515.47 47.2634 515.47 48.7855C515.47 50.2076 516.104 51.3993 517.371 52.3606C518.657 53.322 520.54 54.2233 523.021 55.0645C527.592 56.6066 530.921 58.5194 533.01 60.8026C535.099 63.0858 536.143 65.9299 536.143 69.3347C536.143 73.1201 534.867 76.0943 532.314 78.2574C529.761 80.4002 526.324 81.4718 522.004 81.4718C519.005 81.4718 516.273 80.8612 513.81 79.6392C511.346 78.3976 509.463 76.7052 508.16 74.5621C506.874 72.4191 506.231 69.9355 506.231 67.1116H514.292C514.292 71.9384 516.862 74.3518 522.004 74.3518C523.914 74.3518 525.405 73.9212 526.476 73.06C527.547 72.1787 528.083 70.957 528.083 69.3948Z" fill="#2AC7E3"/>
</g>
<defs>
<filter id="filter0_ddddd_11_8" x="0" y="0" width="633" height="194" filterUnits="userSpaceOnUse" color-interpolation-filters="sRGB">
<feFlood flood-opacity="0" result="BackgroundImageFix"/>
<feColorMatrix in="SourceAlpha" type="matrix" values="0 0 0 0 0 0 0 0 0 0 0 0 0 0 0 0 0 0 127 0" result="hardAlpha"/>
<feOffset/>
<feColorMatrix type="matrix" values="0 0 0 0 0 0 0 0 0 0 0 0 0 0 0 0 0 0 0.15 0"/>
<feBlend mode="normal" in2="BackgroundImageFix" result="effect1_dropShadow_11_8"/>
<feColorMatrix in="SourceAlpha" type="matrix" values="0 0 0 0 0 0 0 0 0 0 0 0 0 0 0 0 0 0 127 0" result="hardAlpha"/>
<feOffset dy="4"/>
<feGaussianBlur stdDeviation="4"/>
<feColorMatrix type="matrix" values="0 0 0 0 0 0 0 0 0 0 0 0 0 0 0 0 0 0 0.15 0"/>
<feBlend mode="normal" in2="effect1_dropShadow_11_8" result="effect2_dropShadow_11_8"/>
<feColorMatrix in="SourceAlpha" type="matrix" values="0 0 0 0 0 0 0 0 0 0 0 0 0 0 0 0 0 0 127 0" result="hardAlpha"/>
<feOffset dy="14"/>
<feGaussianBlur stdDeviation="7"/>
<feColorMatrix type="matrix" values="0 0 0 0 0 0 0 0 0 0 0 0 0 0 0 0 0 0 0.13 0"/>
<feBlend mode="normal" in2="effect2_dropShadow_11_8" result="effect3_dropShadow_11_8"/>
<feColorMatrix in="SourceAlpha" type="matrix" values="0 0 0 0 0 0 0 0 0 0 0 0 0 0 0 0 0 0 127 0" result="hardAlpha"/>
<feOffset dy="32"/>
<feGaussianBlur stdDeviation="9.5"/>
<feColorMatrix type="matrix" values="0 0 0 0 0 0 0 0 0 0 0 0 0 0 0 0 0 0 0.08 0"/>
<feBlend mode="normal" in2="effect3_dropShadow_11_8" result="effect4_dropShadow_11_8"/>
<feColorMatrix in="SourceAlpha" type="matrix" values="0 0 0 0 0 0 0 0 0 0 0 0 0 0 0 0 0 0 127 0" result="hardAlpha"/>
<feOffset dy="57"/>
<feGaussianBlur stdDeviation="11.5"/>
<feColorMatrix type="matrix" values="0 0 0 0 0 0 0 0 0 0 0 0 0 0 0 0 0 0 0.02 0"/>
<feBlend mode="normal" in2="effect4_dropShadow_11_8" result="effect5_dropShadow_11_8"/>
<feBlend mode="normal" in="SourceGraphic" in2="effect5_dropShadow_11_8" result="shape"/>
</filter>
</defs>
</svg>
