<svg width="531" height="186" viewBox="0 0 531 186" fill="none" xmlns="http://www.w3.org/2000/svg">
<rect y="91" width="523" height="3" rx="1.5" fill="#4A4556"/>
<rect x="5.5" y="120" width="15" height="39" rx="7.5" fill="url(#paint0_linear_201_29)"/>
<path d="M6.82031 172.493C6.76728 172.022 6.54853 171.658 6.16406 171.399C5.77959 171.137 5.29569 171.006 4.71236 171.006C4.29474 171.006 3.93348 171.073 3.62855 171.205C3.32363 171.335 3.08665 171.513 2.91761 171.742C2.75189 171.968 2.66903 172.224 2.66903 172.513C2.66903 172.755 2.72538 172.964 2.83807 173.139C2.95407 173.315 3.10488 173.462 3.29048 173.582C3.4794 173.698 3.68158 173.795 3.89702 173.875C4.11245 173.951 4.3196 174.014 4.51847 174.064L5.51278 174.322C5.83759 174.402 6.17069 174.51 6.51207 174.646C6.85346 174.781 7.16998 174.96 7.46165 175.183C7.75331 175.405 7.98864 175.68 8.16761 176.008C8.34991 176.336 8.44105 176.729 8.44105 177.186C8.44105 177.763 8.2919 178.275 7.99361 178.722C7.69863 179.17 7.26941 179.523 6.70597 179.781C6.14583 180.04 5.46804 180.169 4.67259 180.169C3.91027 180.169 3.25071 180.048 2.69389 179.806C2.13707 179.564 1.70123 179.221 1.38636 178.777C1.0715 178.33 0.897491 177.799 0.864347 177.186H2.40554C2.43537 177.554 2.55469 177.861 2.76349 178.106C2.97562 178.348 3.24574 178.528 3.57386 178.648C3.9053 178.764 4.26823 178.822 4.66264 178.822C5.09683 178.822 5.48295 178.754 5.82102 178.618C6.16241 178.479 6.43087 178.286 6.62642 178.041C6.82197 177.793 6.91974 177.503 6.91974 177.171C6.91974 176.87 6.83357 176.623 6.66122 176.43C6.49219 176.238 6.26184 176.079 5.97017 175.953C5.68182 175.827 5.35535 175.716 4.99077 175.62L3.78764 175.292C2.9723 175.07 2.32599 174.743 1.84872 174.312C1.37476 173.882 1.13778 173.312 1.13778 172.602C1.13778 172.016 1.29688 171.504 1.61506 171.066C1.93324 170.629 2.36411 170.289 2.90767 170.047C3.45123 169.802 4.06439 169.679 4.74716 169.679C5.43655 169.679 6.04474 169.8 6.57173 170.042C7.10204 170.284 7.51965 170.617 7.82457 171.041C8.1295 171.462 8.28859 171.946 8.30185 172.493H6.82031ZM14.9949 176.833V172.364H16.4863V180H15.0247V178.678H14.9451C14.7695 179.085 14.4877 179.425 14.1 179.697C13.7155 179.965 13.2366 180.099 12.6632 180.099C12.1726 180.099 11.7385 179.992 11.3606 179.776C10.9861 179.558 10.6911 179.234 10.4757 178.807C10.2636 178.379 10.1575 177.851 10.1575 177.221V172.364H11.644V177.042C11.644 177.562 11.7882 177.977 12.0765 178.285C12.3649 178.593 12.7394 178.747 13.2001 178.747C13.4785 178.747 13.7553 178.678 14.0304 178.538C14.3088 178.399 14.5391 178.189 14.7214 177.907C14.907 177.625 14.9982 177.267 14.9949 176.833ZM19.9702 175.466V180H18.4837V172.364H19.9105V173.607H20.005C20.1806 173.202 20.4557 172.877 20.8303 172.632C21.2081 172.387 21.6837 172.264 22.2571 172.264C22.7775 172.264 23.2332 172.374 23.6243 172.592C24.0154 172.808 24.3187 173.129 24.5341 173.557C24.7495 173.984 24.8572 174.513 24.8572 175.143V180H23.3707V175.322C23.3707 174.768 23.2266 174.336 22.9382 174.024C22.6499 173.709 22.2538 173.552 21.75 173.552C21.4053 173.552 21.0987 173.626 20.8303 173.776C20.5651 173.925 20.3546 174.143 20.1989 174.432C20.0464 174.717 19.9702 175.062 19.9702 175.466Z" fill="white"/>
<rect x="92.5" y="44" width="15" height="115" rx="7.5" fill="url(#paint1_linear_201_29)"/>
<path d="M86.435 169.818H88.2994L91.5408 177.733H91.6602L94.9016 169.818H96.766V180H95.3043V172.632H95.2099L92.207 179.985H90.994L87.9911 172.627H87.8967V180H86.435V169.818ZM102.097 180.154C101.381 180.154 100.756 179.99 100.222 179.662C99.6889 179.334 99.2746 178.875 98.9796 178.285C98.6846 177.695 98.5371 177.005 98.5371 176.217C98.5371 175.424 98.6846 174.732 98.9796 174.138C99.2746 173.545 99.6889 173.085 100.222 172.756C100.756 172.428 101.381 172.264 102.097 172.264C102.813 172.264 103.437 172.428 103.971 172.756C104.505 173.085 104.919 173.545 105.214 174.138C105.509 174.732 105.656 175.424 105.656 176.217C105.656 177.005 105.509 177.695 105.214 178.285C104.919 178.875 104.505 179.334 103.971 179.662C103.437 179.99 102.813 180.154 102.097 180.154ZM102.102 178.906C102.566 178.906 102.95 178.784 103.255 178.538C103.56 178.293 103.785 177.967 103.931 177.559C104.08 177.151 104.155 176.702 104.155 176.212C104.155 175.724 104.08 175.277 103.931 174.869C103.785 174.458 103.56 174.129 103.255 173.88C102.95 173.631 102.566 173.507 102.102 173.507C101.634 173.507 101.247 173.631 100.938 173.88C100.633 174.129 100.406 174.458 100.257 174.869C100.111 175.277 100.039 175.724 100.039 176.212C100.039 176.702 100.111 177.151 100.257 177.559C100.406 177.967 100.633 178.293 100.938 178.538C101.247 178.784 101.634 178.906 102.102 178.906ZM108.802 175.466V180H107.316V172.364H108.743V173.607H108.837C109.013 173.202 109.288 172.877 109.662 172.632C110.04 172.387 110.516 172.264 111.089 172.264C111.609 172.264 112.065 172.374 112.456 172.592C112.847 172.808 113.151 173.129 113.366 173.557C113.582 173.984 113.689 174.513 113.689 175.143V180H112.203V175.322C112.203 174.768 112.059 174.336 111.77 174.024C111.482 173.709 111.086 173.552 110.582 173.552C110.237 173.552 109.931 173.626 109.662 173.776C109.397 173.925 109.187 174.143 109.031 174.432C108.878 174.717 108.802 175.062 108.802 175.466Z" fill="white"/>
<rect x="179" y="83" width="15" height="76" rx="7.5" fill="url(#paint2_linear_201_29)"/>
<path d="M174.805 171.141V169.818H182.685V171.141H179.508V180H177.977V171.141H174.805ZM188.105 176.833V172.364H189.597V180H188.135V178.678H188.055C187.88 179.085 187.598 179.425 187.21 179.697C186.826 179.965 186.347 180.099 185.774 180.099C185.283 180.099 184.849 179.992 184.471 179.776C184.096 179.558 183.801 179.234 183.586 178.807C183.374 178.379 183.268 177.851 183.268 177.221V172.364H184.754V177.042C184.754 177.562 184.899 177.977 185.187 178.285C185.475 178.593 185.85 178.747 186.31 178.747C186.589 178.747 186.866 178.678 187.141 178.538C187.419 178.399 187.649 178.189 187.832 177.907C188.017 177.625 188.109 177.267 188.105 176.833ZM194.885 180.154C194.133 180.154 193.485 179.993 192.941 179.672C192.401 179.347 191.983 178.891 191.688 178.305C191.397 177.715 191.251 177.024 191.251 176.232C191.251 175.449 191.397 174.76 191.688 174.163C191.983 173.567 192.394 173.101 192.921 172.766C193.452 172.432 194.072 172.264 194.781 172.264C195.212 172.264 195.629 172.335 196.034 172.478C196.438 172.621 196.801 172.844 197.122 173.149C197.444 173.454 197.697 173.85 197.883 174.337C198.069 174.821 198.161 175.41 198.161 176.102V176.629H192.091V175.516H196.705C196.705 175.125 196.625 174.778 196.466 174.477C196.307 174.172 196.083 173.931 195.795 173.756C195.51 173.58 195.175 173.492 194.791 173.492C194.373 173.492 194.009 173.595 193.697 173.8C193.389 174.003 193.15 174.268 192.981 174.596C192.815 174.921 192.733 175.274 192.733 175.655V176.525C192.733 177.035 192.822 177.469 193.001 177.827C193.183 178.185 193.437 178.459 193.762 178.648C194.086 178.833 194.466 178.926 194.9 178.926C195.182 178.926 195.439 178.886 195.671 178.807C195.903 178.724 196.103 178.601 196.272 178.439C196.441 178.277 196.571 178.076 196.66 177.837L198.067 178.091C197.954 178.505 197.752 178.868 197.46 179.18C197.172 179.488 196.809 179.728 196.372 179.901C195.938 180.07 195.442 180.154 194.885 180.154Z" fill="white"/>
<rect x="265.5" width="15" height="159" rx="7.5" fill="url(#paint3_linear_201_29)"/>
<path d="M261.155 180L258.331 169.818H259.947L261.931 177.703H262.025L264.088 169.818H265.689L267.752 177.708H267.847L269.826 169.818H271.446L268.618 180H267.071L264.929 172.374H264.849L262.706 180H261.155ZM275.267 180.154C274.515 180.154 273.867 179.993 273.323 179.672C272.783 179.347 272.365 178.891 272.07 178.305C271.779 177.715 271.633 177.024 271.633 176.232C271.633 175.449 271.779 174.76 272.07 174.163C272.365 173.567 272.776 173.101 273.303 172.766C273.834 172.432 274.453 172.264 275.163 172.264C275.594 172.264 276.011 172.335 276.415 172.478C276.82 172.621 277.183 172.844 277.504 173.149C277.826 173.454 278.079 173.85 278.265 174.337C278.451 174.821 278.543 175.41 278.543 176.102V176.629H272.473V175.516H277.087C277.087 175.125 277.007 174.778 276.848 174.477C276.689 174.172 276.465 173.931 276.177 173.756C275.892 173.58 275.557 173.492 275.173 173.492C274.755 173.492 274.39 173.595 274.079 173.8C273.771 174.003 273.532 174.268 273.363 174.596C273.197 174.921 273.114 175.274 273.114 175.655V176.525C273.114 177.035 273.204 177.469 273.383 177.827C273.565 178.185 273.819 178.459 274.143 178.648C274.468 178.833 274.848 178.926 275.282 178.926C275.564 178.926 275.821 178.886 276.053 178.807C276.285 178.724 276.485 178.601 276.654 178.439C276.823 178.277 276.952 178.076 277.042 177.837L278.449 178.091C278.336 178.505 278.134 178.868 277.842 179.18C277.554 179.488 277.191 179.728 276.754 179.901C276.319 180.07 275.824 180.154 275.267 180.154ZM283.051 180.149C282.435 180.149 281.885 179.992 281.401 179.677C280.92 179.359 280.542 178.906 280.267 178.32C279.995 177.73 279.86 177.022 279.86 176.197C279.86 175.371 279.997 174.665 280.272 174.079C280.551 173.492 280.932 173.043 281.416 172.732C281.9 172.42 282.448 172.264 283.061 172.264C283.535 172.264 283.916 172.344 284.205 172.503C284.496 172.659 284.722 172.841 284.881 173.05C285.043 173.259 285.169 173.442 285.259 173.602H285.348V169.818H286.835V180H285.383V178.812H285.259C285.169 178.974 285.04 179.16 284.871 179.369C284.705 179.577 284.477 179.76 284.185 179.915C283.893 180.071 283.515 180.149 283.051 180.149ZM283.379 178.881C283.807 178.881 284.168 178.769 284.463 178.543C284.762 178.315 284.987 177.998 285.139 177.594C285.295 177.189 285.373 176.719 285.373 176.182C285.373 175.652 285.297 175.187 285.144 174.79C284.992 174.392 284.768 174.082 284.473 173.86C284.178 173.638 283.814 173.527 283.379 173.527C282.932 173.527 282.559 173.643 282.261 173.875C281.963 174.107 281.737 174.424 281.585 174.825C281.436 175.226 281.361 175.678 281.361 176.182C281.361 176.692 281.437 177.151 281.59 177.559C281.742 177.967 281.968 178.29 282.266 178.528C282.567 178.764 282.939 178.881 283.379 178.881Z" fill="white"/>
<rect x="352.5" y="30" width="15" height="129" rx="7.5" fill="url(#paint4_linear_201_29)"/>
<path d="M347.683 171.141V169.818H355.563V171.141H352.386V180H350.855V171.141H347.683ZM358.671 175.466V180H357.185V169.818H358.651V173.607H358.746C358.925 173.196 359.198 172.869 359.566 172.627C359.934 172.385 360.415 172.264 361.008 172.264C361.532 172.264 361.989 172.372 362.38 172.587C362.775 172.803 363.079 173.124 363.295 173.552C363.514 173.976 363.623 174.506 363.623 175.143V180H362.137V175.322C362.137 174.762 361.992 174.327 361.704 174.019C361.416 173.708 361.015 173.552 360.501 173.552C360.15 173.552 359.835 173.626 359.556 173.776C359.281 173.925 359.064 174.143 358.905 174.432C358.749 174.717 358.671 175.062 358.671 175.466ZM370.444 176.833V172.364H371.936V180H370.474V178.678H370.394C370.219 179.085 369.937 179.425 369.549 179.697C369.165 179.965 368.686 180.099 368.112 180.099C367.622 180.099 367.188 179.992 366.81 179.776C366.435 179.558 366.14 179.234 365.925 178.807C365.713 178.379 365.607 177.851 365.607 177.221V172.364H367.093V177.042C367.093 177.562 367.237 177.977 367.526 178.285C367.814 178.593 368.189 178.747 368.649 178.747C368.928 178.747 369.204 178.678 369.48 178.538C369.758 178.399 369.988 178.189 370.171 177.907C370.356 177.625 370.447 177.267 370.444 176.833Z" fill="white"/>
<rect x="433" y="39" width="15" height="120" rx="7.5" fill="url(#paint5_linear_201_29)"/>
<path d="M433.135 180V169.818H439.449V171.141H434.671V174.243H438.997V175.56H434.671V180H433.135ZM441.123 180V172.364H442.56V173.577H442.64C442.779 173.166 443.024 172.843 443.375 172.607C443.73 172.369 444.131 172.249 444.579 172.249C444.671 172.249 444.781 172.253 444.907 172.259C445.036 172.266 445.137 172.274 445.21 172.284V173.706C445.15 173.689 445.044 173.671 444.892 173.651C444.739 173.628 444.587 173.616 444.434 173.616C444.083 173.616 443.77 173.691 443.495 173.84C443.223 173.986 443.008 174.19 442.848 174.452C442.689 174.71 442.61 175.005 442.61 175.337V180H441.123ZM446.496 180V172.364H447.983V180H446.496ZM447.247 171.185C446.989 171.185 446.766 171.099 446.581 170.927C446.399 170.751 446.307 170.542 446.307 170.3C446.307 170.055 446.399 169.846 446.581 169.674C446.766 169.498 446.989 169.411 447.247 169.411C447.506 169.411 447.726 169.498 447.908 169.674C448.094 169.846 448.187 170.055 448.187 170.3C448.187 170.542 448.094 170.751 447.908 170.927C447.726 171.099 447.506 171.185 447.247 171.185Z" fill="white"/>
<rect x="512" y="90" width="15" height="69" rx="7.5" fill="url(#paint6_linear_201_29)"/>
<path d="M515.077 172.493C515.024 172.022 514.805 171.658 514.421 171.399C514.036 171.137 513.553 171.006 512.969 171.006C512.552 171.006 512.19 171.073 511.885 171.205C511.58 171.335 511.343 171.513 511.174 171.742C511.009 171.968 510.926 172.224 510.926 172.513C510.926 172.755 510.982 172.964 511.095 173.139C511.211 173.315 511.362 173.462 511.547 173.582C511.736 173.698 511.938 173.795 512.154 173.875C512.369 173.951 512.576 174.014 512.775 174.064L513.77 174.322C514.094 174.402 514.428 174.51 514.769 174.646C515.11 174.781 515.427 174.96 515.718 175.183C516.01 175.405 516.245 175.68 516.424 176.008C516.607 176.336 516.698 176.729 516.698 177.186C516.698 177.763 516.549 178.275 516.25 178.722C515.955 179.17 515.526 179.523 514.963 179.781C514.403 180.04 513.725 180.169 512.929 180.169C512.167 180.169 511.508 180.048 510.951 179.806C510.394 179.564 509.958 179.221 509.643 178.777C509.328 178.33 509.154 177.799 509.121 177.186H510.662C510.692 177.554 510.812 177.861 511.02 178.106C511.232 178.348 511.503 178.528 511.831 178.648C512.162 178.764 512.525 178.822 512.919 178.822C513.354 178.822 513.74 178.754 514.078 178.618C514.419 178.479 514.688 178.286 514.883 178.041C515.079 177.793 515.177 177.503 515.177 177.171C515.177 176.87 515.09 176.623 514.918 176.43C514.749 176.238 514.519 176.079 514.227 175.953C513.939 175.827 513.612 175.716 513.248 175.62L512.044 175.292C511.229 175.07 510.583 174.743 510.106 174.312C509.632 173.882 509.395 173.312 509.395 172.602C509.395 172.016 509.554 171.504 509.872 171.066C510.19 170.629 510.621 170.289 511.165 170.047C511.708 169.802 512.321 169.679 513.004 169.679C513.693 169.679 514.302 169.8 514.829 170.042C515.359 170.284 515.776 170.617 516.081 171.041C516.386 171.462 516.545 171.946 516.559 172.493H515.077ZM520.637 180.169C520.153 180.169 519.715 180.08 519.324 179.901C518.933 179.718 518.623 179.455 518.394 179.11C518.169 178.765 518.056 178.343 518.056 177.842C518.056 177.411 518.139 177.057 518.305 176.778C518.471 176.5 518.694 176.28 518.976 176.117C519.258 175.955 519.573 175.832 519.921 175.749C520.269 175.666 520.623 175.603 520.985 175.56C521.442 175.507 521.813 175.464 522.098 175.431C522.383 175.395 522.59 175.337 522.72 175.257C522.849 175.178 522.914 175.048 522.914 174.869V174.835C522.914 174.4 522.791 174.064 522.546 173.825C522.304 173.587 521.943 173.467 521.462 173.467C520.961 173.467 520.567 173.578 520.279 173.8C519.994 174.019 519.796 174.263 519.687 174.531L518.29 174.213C518.456 173.749 518.698 173.375 519.016 173.089C519.337 172.801 519.707 172.592 520.125 172.463C520.542 172.33 520.981 172.264 521.442 172.264C521.747 172.264 522.07 172.301 522.411 172.374C522.756 172.443 523.078 172.572 523.376 172.761C523.678 172.95 523.925 173.22 524.117 173.572C524.309 173.92 524.405 174.372 524.405 174.929V180H522.953V178.956H522.894C522.798 179.148 522.653 179.337 522.461 179.523C522.269 179.708 522.022 179.862 521.72 179.985C521.419 180.108 521.058 180.169 520.637 180.169ZM520.96 178.976C521.371 178.976 521.722 178.895 522.014 178.732C522.309 178.57 522.532 178.358 522.685 178.096C522.841 177.831 522.919 177.547 522.919 177.246V176.261C522.866 176.314 522.763 176.364 522.61 176.411C522.461 176.454 522.291 176.492 522.098 176.525C521.906 176.555 521.719 176.583 521.536 176.609C521.354 176.633 521.202 176.652 521.079 176.669C520.791 176.705 520.527 176.767 520.289 176.853C520.053 176.939 519.864 177.063 519.722 177.226C519.583 177.385 519.513 177.597 519.513 177.862C519.513 178.23 519.649 178.509 519.921 178.697C520.193 178.883 520.539 178.976 520.96 178.976ZM529.95 172.364V173.557H525.778V172.364H529.95ZM526.897 170.534H528.384V177.758C528.384 178.046 528.427 178.263 528.513 178.409C528.599 178.552 528.71 178.649 528.846 178.702C528.985 178.752 529.136 178.777 529.298 178.777C529.418 178.777 529.522 178.769 529.612 178.752C529.701 178.736 529.771 178.722 529.82 178.712L530.089 179.94C530.003 179.973 529.88 180.007 529.721 180.04C529.562 180.076 529.363 180.096 529.124 180.099C528.733 180.106 528.369 180.036 528.031 179.891C527.693 179.745 527.419 179.519 527.21 179.214C527.002 178.91 526.897 178.527 526.897 178.066V170.534Z" fill="white"/>
<defs>
<linearGradient id="paint0_linear_201_29" x1="13" y1="120" x2="13" y2="159" gradientUnits="userSpaceOnUse">
<stop stop-color="#90F7EC"/>
<stop offset="1" stop-color="#32CCBC"/>
</linearGradient>
<linearGradient id="paint1_linear_201_29" x1="100" y1="44" x2="100" y2="159" gradientUnits="userSpaceOnUse">
<stop stop-color="#90F7EC"/>
<stop offset="1" stop-color="#32CCBC"/>
</linearGradient>
<linearGradient id="paint2_linear_201_29" x1="186.5" y1="83" x2="186.5" y2="159" gradientUnits="userSpaceOnUse">
<stop stop-color="#90F7EC"/>
<stop offset="1" stop-color="#32CCBC"/>
</linearGradient>
<linearGradient id="paint3_linear_201_29" x1="273" y1="0" x2="273" y2="159" gradientUnits="userSpaceOnUse">
<stop stop-color="#90F7EC"/>
<stop offset="1" stop-color="#32CCBC"/>
</linearGradient>
<linearGradient id="paint4_linear_201_29" x1="360" y1="30" x2="360" y2="159" gradientUnits="userSpaceOnUse">
<stop stop-color="#90F7EC"/>
<stop offset="1" stop-color="#32CCBC"/>
</linearGradient>
<linearGradient id="paint5_linear_201_29" x1="440.5" y1="39" x2="440.5" y2="159" gradientUnits="userSpaceOnUse">
<stop stop-color="#90F7EC"/>
<stop offset="1" stop-color="#32CCBC"/>
</linearGradient>
<linearGradient id="paint6_linear_201_29" x1="519.5" y1="90" x2="519.5" y2="159" gradientUnits="userSpaceOnUse">
<stop stop-color="#90F7EC"/>
<stop offset="1" stop-color="#32CCBC"/>
</linearGradient>
</defs>
</svg>
