<svg width="808" height="808" viewBox="0 0 808 808" fill="none" xmlns="http://www.w3.org/2000/svg">
<g clip-path="url(#clip0_2_5)" filter="url(#filter0_d_2_5)">
<path d="M404 0.00717163C289.868 0.00717163 187.01 48.3053 114.067 125.241C113.55 125.686 112.904 125.844 112.416 126.332C111.64 127.108 111.368 128.142 110.649 128.975C44.6865 200.337 4 295.397 4 400.007C4 620.559 183.42 799.993 403.986 799.993C624.523 799.993 803.971 620.559 803.971 400.007C803.986 179.441 624.537 0.00717163 404 0.00717163ZM68.4693 399.993C68.4693 323.661 94.3921 253.404 137.491 196.948L606.987 666.487C550.546 709.586 480.332 735.509 403.986 735.509C218.979 735.509 68.4693 584.985 68.4693 399.993ZM654.323 622.612L181.352 149.684C240.665 96.862 318.52 64.4621 404 64.4621C588.992 64.4621 739.516 214.972 739.516 399.993C739.502 485.473 707.116 563.342 654.323 622.612Z" fill="#4A4556"/>
</g>
<defs>
<filter id="filter0_d_2_5" x="0" y="0" width="808" height="808" filterUnits="userSpaceOnUse" color-interpolation-filters="sRGB">
<feFlood flood-opacity="0" result="BackgroundImageFix"/>
<feColorMatrix in="SourceAlpha" type="matrix" values="0 0 0 0 0 0 0 0 0 0 0 0 0 0 0 0 0 0 127 0" result="hardAlpha"/>
<feOffset dy="4"/>
<feGaussianBlur stdDeviation="2"/>
<feComposite in2="hardAlpha" operator="out"/>
<feColorMatrix type="matrix" values="0 0 0 0 0 0 0 0 0 0 0 0 0 0 0 0 0 0 0.25 0"/>
<feBlend mode="normal" in2="BackgroundImageFix" result="effect1_dropShadow_2_5"/>
<feBlend mode="normal" in="SourceGraphic" in2="effect1_dropShadow_2_5" result="shape"/>
</filter>
<clipPath id="clip0_2_5">
<rect width="800" height="800" fill="white" transform="translate(4)"/>
</clipPath>
</defs>
</svg>
